<svg width="1920" height="464" viewBox="0 0 1920 464" fill="none" xmlns="http://www.w3.org/2000/svg">
<mask id="mask0_1462_9693" style="mask-type:alpha" maskUnits="userSpaceOnUse" x="0" y="0" width="1920" height="464">
<path d="M1920 0H0V464H1920V0Z" fill="white"/>
</mask>
<g mask="url(#mask0_1462_9693)">
<path d="M646.126 -63H592.124V-8.99766H646.126M646.126 -63V-8.99766M646.126 -63H700.129V-8.99766H646.126M754.131 -63H700.128V-8.99766H754.131M754.131 -63V-8.99766M754.131 -63H808.134V-8.99766H754.131M862.135 -63H808.133V-8.99766H862.135M862.135 -63V-8.99766M862.135 -63H916.138V-8.99766H862.135M1024.14 -62.919H970.14V-8.91669H1024.14M1024.14 -62.919V-8.91669M1024.14 -62.919L1078.15 -62.919V-8.9167L1024.14 -8.91669M1132.15 -62.919H1078.14V-8.9167H1132.15M1132.15 -62.919V-8.9167M1132.15 -62.919H1186.15V-8.9167H1132.15M1240.15 -62.919H1186.15V-8.9167H1240.15M1240.15 -62.919V-8.9167M1240.15 -62.919H1294.15V-8.9167H1240.15M646.126 -9.09769H592.124V44.9046H646.126M646.126 -9.09769V44.9046M646.126 -9.09769L700.129 -9.09769V44.9046L646.126 44.9046M754.131 -9.09769H700.128V44.9046H754.131M754.131 -9.09769V44.9046M754.131 -9.09769H808.134V44.9046H754.131M862.135 -9.09769H808.133V44.9046H862.135M862.135 -9.09769V44.9046M862.135 -9.09769H916.138V44.9046H862.135M1024.14 -9.01672H970.14V44.9856H1024.14M1024.14 -9.01672V44.9856M1024.14 -9.01672H1078.15V44.9856H1024.14M1132.15 -9.01672H1078.14V44.9856H1132.15M1132.15 -9.01672V44.9856M1132.15 -9.01672H1186.15V44.9856H1132.15M1240.15 -9.01672H1186.15V44.9856H1240.15M1240.15 -9.01672V44.9856M1240.15 -9.01672H1294.15V44.9856H1240.15M646.126 45.5047H592.124V99.507H646.126M646.126 45.5047V99.507M646.126 45.5047H700.129V99.507H646.126M754.131 45.5047H700.128V99.507H754.131M754.131 45.5047V99.507M754.131 45.5047H808.134V99.507H754.131M862.135 45.5047H808.133V99.507H862.135M862.135 45.5047V99.507M862.135 45.5047H916.138V99.507H862.135M1024.14 45.5856H970.14V99.588H1024.14M1024.14 45.5856V99.588M1024.14 45.5856H1078.15V99.588H1024.14M1132.15 45.5856H1078.14V99.588H1132.15M1132.15 45.5856V99.588M1132.15 45.5856H1186.15V99.588H1132.15M1240.15 45.5856H1186.15V99.588H1240.15M1240.15 45.5856V99.588M1240.15 45.5856H1294.15V99.588H1240.15M646.126 99.407H592.124V153.409H646.126M646.126 99.407V153.409M646.126 99.407H700.129V153.409H646.126M754.131 99.407H700.128V153.409H754.131M754.131 99.407V153.409M754.131 99.407H808.134V153.409H754.131M862.135 99.407H808.133V153.409H862.135M862.135 99.407V153.409M862.135 99.407H916.138V153.409H862.135M1024.14 99.4879H970.14V153.49H1024.14M1024.14 99.4879V153.49M1024.14 99.4879H1078.15V153.49H1024.14M1132.15 99.4879H1078.14V153.49H1132.15M1132.15 99.4879V153.49M1132.15 99.4879H1186.15V153.49H1132.15M1240.15 99.4879H1186.15V153.49H1240.15M1240.15 99.4879V153.49M1240.15 99.4879H1294.15V153.49H1240.15M646.126 154.009H592.124V208.012H646.126M646.126 154.009V208.012M646.126 154.009L700.129 154.009V208.012L646.126 208.012M754.131 154.009H700.128V208.012H754.131M754.131 154.009V208.012M754.131 154.009H808.134V208.012H754.131M862.135 154.009H808.133V208.012H862.135M862.135 154.009V208.012M862.135 154.009H916.138V208.012H862.135M1024.14 154.09H970.14V208.093H1024.14M1024.14 154.09V208.093M1024.14 154.09H1078.15V208.093H1024.14M1132.15 154.09H1078.14V208.093H1132.15M1132.15 154.09V208.093M1132.15 154.09H1186.15V208.093H1132.15M1240.15 154.09H1186.15V208.093H1240.15M1240.15 154.09V208.093M1240.15 154.09H1294.15V208.093H1240.15M646.126 207.912H592.124V261.914H646.126M646.126 207.912V261.914M646.126 207.912H700.129V261.914H646.126M754.131 207.912H700.128V261.914H754.131M754.131 207.912V261.914M754.131 207.912H808.134V261.914H754.131M862.135 207.912H808.133V261.914H862.135M862.135 207.912V261.914M862.135 207.912H916.138V261.914H862.135M1024.14 207.993H970.14V261.995H1024.14M1024.14 207.993V261.995M1024.14 207.993L1078.15 207.993V261.995H1024.14M1132.15 207.993H1078.14V261.995H1132.15M1132.15 207.993V261.995M1132.15 207.993H1186.15V261.995H1132.15M1240.15 207.993H1186.15V261.995H1240.15M1240.15 207.993V261.995M1240.15 207.993H1294.15V261.995H1240.15M646.126 261.814H592.124V315.816H646.126M646.126 261.814V315.816M646.126 261.814H700.129V315.816H646.126M754.131 261.814H700.128V315.816H754.131M754.131 261.814V315.816M754.131 261.814H808.134V315.816H754.131M862.135 261.814H808.133V315.816H862.135M862.135 261.814V315.816M862.135 261.814H916.138V315.816H862.135M1024.14 261.895H970.14V315.897H1024.14M1024.14 261.895V315.897M1024.14 261.895H1078.15V315.897H1024.14M1132.15 261.895H1078.14V315.897H1132.15M1132.15 261.895V315.897M1132.15 261.895H1186.15V315.897H1132.15M1240.15 261.895H1186.15V315.897H1240.15M1240.15 261.895V315.897M1240.15 261.895H1294.15V315.897H1240.15M646.126 315.716H592.124V369.719H646.126M646.126 315.716V369.719M646.126 315.716H700.129V369.719H646.126M754.131 315.716H700.128V369.719H754.131M754.131 315.716V369.719M754.131 315.716H808.134V369.719H754.131M862.135 315.716H808.133V369.719H862.135M862.135 315.716V369.719M862.135 315.716H916.138V369.719H862.135M1024.14 315.797H970.14V369.8H1024.14M1024.14 315.797V369.8M1024.14 315.797H1078.15V369.8L1024.14 369.8M1132.15 315.797H1078.14V369.8H1132.15M1132.15 315.797V369.8M1132.15 315.797H1186.15V369.8H1132.15M1240.15 315.797H1186.15V369.8H1240.15M1240.15 315.797V369.8M1240.15 315.797H1294.15V369.8H1240.15M646.126 370.319H592.124V424.321H646.126M646.126 370.319V424.321M646.126 370.319H700.129V424.321H646.126M754.131 370.319H700.128V424.321H754.131M754.131 370.319V424.321M754.131 370.319H808.134V424.321H754.131M862.135 370.319H808.133V424.321H862.135M862.135 370.319V424.321M862.135 370.319H916.138V424.321H862.135M1024.14 370.4H970.14V424.402H1024.14M1024.14 370.4V424.402M1024.14 370.4L1078.15 370.4V424.402H1024.14M1132.15 370.4H1078.14V424.402H1132.15M1132.15 370.4V424.402M1132.15 370.4H1186.15V424.402H1132.15M1240.15 370.4H1186.15V424.402H1240.15M1240.15 370.4V424.402M1240.15 370.4H1294.15V424.402H1240.15M646.126 424.221H592.124V478.223H646.126M646.126 424.221V478.223M646.126 424.221L700.129 424.221V478.223L646.126 478.223M754.131 424.221H700.128V478.223H754.131M754.131 424.221V478.223M754.131 424.221H808.134V478.223H754.131M862.135 424.221H808.133V478.223H862.135M862.135 424.221V478.223M862.135 424.221H916.138V478.223H862.135M1024.14 424.302H970.14V478.304H1024.14M1024.14 424.302V478.304M1024.14 424.302H1078.15V478.304H1024.14M1132.15 424.302H1078.14V478.304H1132.15M1132.15 424.302V478.304M1132.15 424.302H1186.15V478.304H1132.15M1240.15 424.302H1186.15V478.304H1240.15M1240.15 424.302V478.304M1240.15 424.302H1294.15V478.304H1240.15M646.126 478.823H592.124V532.826H646.126M646.126 478.823V532.826M646.126 478.823H700.129V532.826H646.126M754.131 478.823H700.128V532.826H754.131M754.131 478.823V532.826M754.131 478.823H808.134V532.826H754.131M862.135 478.823H808.133V532.826H862.135M862.135 478.823V532.826M862.135 478.823H916.138V532.826H862.135M1024.14 478.904H970.14V532.907H1024.14M1024.14 478.904V532.907M1024.14 478.904L1078.15 478.904V532.907H1024.14M1132.15 478.904H1078.14V532.907H1132.15M1132.15 478.904V532.907M1132.15 478.904H1186.15V532.907H1132.15M1240.15 478.904H1186.15V532.907H1240.15M1240.15 478.904V532.907M1240.15 478.904H1294.15V532.907H1240.15M646.126 532.726H592.124V586.728H646.126M646.126 532.726V586.728M646.126 532.726H700.129V586.728L646.126 586.728M754.131 532.726H700.128V586.728H754.131M754.131 532.726V586.728M754.131 532.726H808.134V586.728H754.131M862.135 532.726H808.133V586.728H862.135M862.135 532.726V586.728M862.135 532.726H916.138V586.728H862.135M1024.14 532.807H970.14V586.809H1024.14M1024.14 532.807V586.809M1024.14 532.807H1078.15V586.809H1024.14M1132.15 532.807H1078.14V586.809H1132.15M1132.15 532.807V586.809M1132.15 532.807H1186.15V586.809H1132.15M1240.15 532.807H1186.15V586.809H1240.15M1240.15 532.807V586.809M1240.15 532.807H1294.15V586.809H1240.15M916.137 -63H970.14V-8.99766H916.137V-63ZM1294.15 -62.919H1348.16V-8.9167H1294.15V-62.919ZM916.137 -9.09769H970.14V44.9046H916.137V-9.09769ZM1294.15 -9.01672H1348.16V44.9856H1294.15V-9.01672ZM916.137 45.5047H970.14V99.507H916.137V45.5047ZM1294.15 45.5856H1348.16V99.588H1294.15V45.5856ZM916.137 99.407H970.14V153.409H916.137V99.407ZM1294.15 99.4879H1348.16V153.49H1294.15V99.4879ZM916.137 154.009H970.14V208.012H916.137V154.009ZM1294.15 154.09H1348.16V208.093H1294.15V154.09ZM916.137 207.912H970.14V261.914H916.137V207.912ZM1294.15 207.993H1348.16V261.995H1294.15V207.993ZM916.137 261.814H970.14V315.816H916.137V261.814ZM1294.15 261.895H1348.16V315.897H1294.15V261.895ZM916.137 315.716H970.14V369.719H916.137V315.716ZM1294.15 315.797H1348.16V369.8H1294.15V315.797ZM916.137 370.319H970.14V424.321H916.137V370.319ZM1294.15 370.4H1348.16V424.402H1294.15V370.4ZM916.137 424.221H970.14V478.223H916.137V424.221ZM1294.15 424.302H1348.16V478.304H1294.15V424.302ZM916.137 478.823H970.14V532.826H916.137V478.823ZM1294.15 478.904H1348.16V532.907H1294.15V478.904ZM916.137 532.726H970.14V586.728H916.137V532.726ZM1294.15 532.807H1348.16V586.809H1294.15V532.807Z" stroke="url(#paint0_radial_1462_9693)" stroke-opacity="0.15" stroke-width="0.358513"/>
<mask id="mask1_1462_9693" style="mask-type:alpha" maskUnits="userSpaceOnUse" x="-34" y="401" width="41" height="34">
<path d="M-30.2647 401.015C-32.273 403.738 -32.4821 407.789 -30.4159 412.521C-26.283 421.987 -14.612 430.596 -4.3478 431.75C0.783639 432.327 4.59197 430.931 6.60118 428.208L4.85438 430.576C2.84555 433.301 -0.963393 434.697 -6.0961 434.12C-16.3603 432.966 -28.0313 424.357 -32.1642 414.891C-34.2304 410.159 -34.0213 406.108 -32.013 403.385L-30.2647 401.015Z" fill="black"/>
</mask>
<g mask="url(#mask1_1462_9693)">
<rect x="-8.77002" y="410.466" width="36.2258" height="45.5032" transform="rotate(36.4138 -8.77002 410.466)" fill="#0C0C0C"/>
</g>
</g>
<defs>
<radialGradient id="paint0_radial_1462_9693" cx="0" cy="0" r="1" gradientUnits="userSpaceOnUse" gradientTransform="translate(997.231 193.106) rotate(-112.028) scale(236.854 361.269)">
<stop stop-color="white"/>
<stop offset="1" stop-color="white" stop-opacity="0"/>
</radialGradient>
</defs>
</svg>
