<svg width="1024" height="464" viewBox="0 0 1024 464" fill="none" xmlns="http://www.w3.org/2000/svg">
<mask id="mask0_1462_9726" style="mask-type:alpha" maskUnits="userSpaceOnUse" x="0" y="0" width="1024" height="464">
<path d="M1024 0H0V464H1024V0Z" fill="white"/>
</mask>
<g mask="url(#mask0_1462_9726)">
<path d="M276.054 -30H235V11.0539H276.054M276.054 -30V11.0539M276.054 -30H317.108V11.0539H276.054M358.161 -30H317.108V11.0539H358.161M358.161 -30V11.0539M358.161 -30H399.216V11.0539H358.161M440.269 -30H399.215V11.0539H440.269M440.269 -30V11.0539M440.269 -30H481.323V11.0539H440.269M563.431 -29.9384H522.377V11.1154H563.431M563.431 -29.9384V11.1154M563.431 -29.9384L604.485 -29.9384V11.1154L563.431 11.1154M645.538 -29.9384H604.485V11.1154H645.538M645.538 -29.9384V11.1154M645.538 -29.9384H686.593V11.1154H645.538M727.646 -29.9384H686.592V11.1154H727.646M727.646 -29.9384V11.1154M727.646 -29.9384H768.7V11.1154H727.646M276.054 10.9778H235V52.0317H276.054M276.054 10.9778V52.0317M276.054 10.9778L317.108 10.9778V52.0317L276.054 52.0317M358.161 10.9778H317.108V52.0317H358.161M358.161 10.9778V52.0317M358.161 10.9778H399.216V52.0317H358.161M440.269 10.9778H399.215V52.0317H440.269M440.269 10.9778V52.0317M440.269 10.9778H481.323V52.0317H440.269M563.431 11.0394H522.377V52.0932H563.431M563.431 11.0394V52.0932M563.431 11.0394H604.485V52.0932H563.431M645.538 11.0394H604.485V52.0932H645.538M645.538 11.0394V52.0932M645.538 11.0394H686.593V52.0932H645.538M727.646 11.0394H686.592V52.0932H727.646M727.646 11.0394V52.0932M727.646 11.0394H768.7V52.0932H727.646M276.054 52.4878H235V93.5417H276.054M276.054 52.4878V93.5417M276.054 52.4878H317.108V93.5417H276.054M358.161 52.4878H317.108V93.5417H358.161M358.161 52.4878V93.5417M358.161 52.4878H399.216V93.5417H358.161M440.269 52.4878H399.215V93.5417H440.269M440.269 52.4878V93.5417M440.269 52.4878H481.323V93.5417H440.269M563.431 52.5494H522.377V93.6032H563.431M563.431 52.5494V93.6032M563.431 52.5494H604.485V93.6032H563.431M645.538 52.5494H604.485V93.6032H645.538M645.538 52.5494V93.6032M645.538 52.5494H686.593V93.6032H645.538M727.646 52.5494H686.592V93.6032H727.646M727.646 52.5494V93.6032M727.646 52.5494H768.7V93.6032H727.646M276.054 93.4656H235V134.519H276.054M276.054 93.4656V134.519M276.054 93.4656H317.108V134.519H276.054M358.161 93.4656H317.108V134.519H358.161M358.161 93.4656V134.519M358.161 93.4656H399.216V134.519H358.161M440.269 93.4656H399.215V134.519H440.269M440.269 93.4656V134.519M440.269 93.4656H481.323V134.519H440.269M563.431 93.5272H522.377V134.581H563.431M563.431 93.5272V134.581M563.431 93.5272H604.485V134.581H563.431M645.538 93.5272H604.485V134.581H645.538M645.538 93.5272V134.581M645.538 93.5272H686.593V134.581H645.538M727.646 93.5272H686.592V134.581H727.646M727.646 93.5272V134.581M727.646 93.5272H768.7V134.581H727.646M276.054 134.976H235V176.03H276.054M276.054 134.976V176.03M276.054 134.976L317.108 134.976V176.029L276.054 176.03M358.161 134.976H317.108V176.029H358.161M358.161 134.976V176.029M358.161 134.976H399.216V176.029H358.161M440.269 134.976H399.215V176.029H440.269M440.269 134.976V176.029M440.269 134.976H481.323V176.029H440.269M563.431 135.037H522.377V176.091H563.431M563.431 135.037V176.091M563.431 135.037H604.485V176.091H563.431M645.538 135.037H604.485V176.091H645.538M645.538 135.037V176.091M645.538 135.037H686.593V176.091H645.538M727.646 135.037H686.592V176.091H727.646M727.646 135.037V176.091M727.646 135.037H768.7V176.091H727.646M276.054 175.953H235V217.007H276.054M276.054 175.953V217.007M276.054 175.953H317.108V217.007H276.054M358.161 175.953H317.108V217.007H358.161M358.161 175.953V217.007M358.161 175.953H399.216V217.007H358.161M440.269 175.953H399.215V217.007H440.269M440.269 175.953V217.007M440.269 175.953H481.323V217.007H440.269M563.431 176.015H522.377V217.069H563.431M563.431 176.015V217.069M563.431 176.015L604.485 176.015V217.069H563.431M645.538 176.015H604.485V217.069H645.538M645.538 176.015V217.069M645.538 176.015H686.593V217.069H645.538M727.646 176.015H686.592V217.069H727.646M727.646 176.015V217.069M727.646 176.015H768.7V217.069H727.646M276.054 216.931H235V257.985H276.054M276.054 216.931V257.985M276.054 216.931H317.108V257.985H276.054M358.161 216.931H317.108V257.985H358.161M358.161 216.931V257.985M358.161 216.931H399.216V257.985H358.161M440.269 216.931H399.215V257.985H440.269M440.269 216.931V257.985M440.269 216.931H481.323V257.985H440.269M563.431 216.993H522.377V258.047H563.431M563.431 216.993V258.047M563.431 216.993H604.485V258.047H563.431M645.538 216.993H604.485V258.047H645.538M645.538 216.993V258.047M645.538 216.993H686.593V258.047H645.538M727.646 216.993H686.592V258.047H727.646M727.646 216.993V258.047M727.646 216.993H768.7V258.047H727.646M276.054 257.909H235V298.963H276.054M276.054 257.909V298.963M276.054 257.909H317.108V298.963H276.054M358.161 257.909H317.108V298.963H358.161M358.161 257.909V298.963M358.161 257.909H399.216V298.963H358.161M440.269 257.909H399.215V298.963H440.269M440.269 257.909V298.963M440.269 257.909H481.323V298.963H440.269M563.431 257.971H522.377V299.024H563.431M563.431 257.971V299.024M563.431 257.971H604.485V299.025L563.431 299.024M645.538 257.971H604.485V299.025H645.538M645.538 257.971V299.025M645.538 257.971H686.593V299.025H645.538M727.646 257.971H686.592V299.025H727.646M727.646 257.971V299.025M727.646 257.971H768.7V299.025H727.646M276.054 299.419H235V340.473H276.054M276.054 299.419V340.473M276.054 299.419H317.108V340.473H276.054M358.161 299.419H317.108V340.473H358.161M358.161 299.419V340.473M358.161 299.419H399.216V340.473H358.161M440.269 299.419H399.215V340.473H440.269M440.269 299.419V340.473M440.269 299.419H481.323V340.473H440.269M563.431 299.481H522.377V340.535H563.431M563.431 299.481V340.535M563.431 299.481L604.485 299.481V340.535H563.431M645.538 299.481H604.485V340.535H645.538M645.538 299.481V340.535M645.538 299.481H686.593V340.535H645.538M727.646 299.481H686.592V340.535H727.646M727.646 299.481V340.535M727.646 299.481H768.7V340.535H727.646M276.054 340.397H235V381.451H276.054M276.054 340.397V381.451M276.054 340.397L317.108 340.397V381.451L276.054 381.451M358.161 340.397H317.108V381.451H358.161M358.161 340.397V381.451M358.161 340.397H399.216V381.451H358.161M440.269 340.397H399.215V381.451H440.269M440.269 340.397V381.451M440.269 340.397H481.323V381.451H440.269M563.431 340.458H522.377V381.512H563.431M563.431 340.458V381.512M563.431 340.458H604.485V381.512H563.431M645.538 340.458H604.485V381.512H645.538M645.538 340.458V381.512M645.538 340.458H686.593V381.512H645.538M727.646 340.458H686.592V381.512H727.646M727.646 340.458V381.512M727.646 340.458H768.7V381.512H727.646M276.054 381.907H235V422.961H276.054M276.054 381.907V422.961M276.054 381.907H317.108V422.961H276.054M358.161 381.907H317.108V422.961H358.161M358.161 381.907V422.961M358.161 381.907H399.216V422.961H358.161M440.269 381.907H399.215V422.961H440.269M440.269 381.907V422.961M440.269 381.907H481.323V422.961H440.269M563.431 381.968H522.377V423.022H563.431M563.431 381.968V423.022M563.431 381.968L604.485 381.968V423.022H563.431M645.538 381.968H604.485V423.022H645.538M645.538 381.968V423.022M645.538 381.968H686.593V423.022H645.538M727.646 381.968H686.592V423.022H727.646M727.646 381.968V423.022M727.646 381.968H768.7V423.022H727.646M276.054 422.885H235V463.939H276.054M276.054 422.885V463.939M276.054 422.885H317.108V463.939L276.054 463.939M358.161 422.885H317.108V463.939H358.161M358.161 422.885V463.939M358.161 422.885H399.216V463.939H358.161M440.269 422.885H399.215V463.939H440.269M440.269 422.885V463.939M440.269 422.885H481.323V463.939H440.269M563.431 422.946H522.377V464H563.431M563.431 422.946V464M563.431 422.946H604.485V464H563.431M645.538 422.946H604.485V464H645.538M645.538 422.946V464M645.538 422.946H686.593V464H645.538M727.646 422.946H686.592V464H727.646M727.646 422.946V464M727.646 422.946H768.7V464H727.646M481.323 -30H522.377V11.0539H481.323V-30ZM768.7 -29.9384H809.753V11.1154H768.7V-29.9384ZM481.323 10.9778H522.377V52.0317H481.323V10.9778ZM768.7 11.0394H809.753V52.0932H768.7V11.0394ZM481.323 52.4878H522.377V93.5417H481.323V52.4878ZM768.7 52.5494H809.753V93.6032H768.7V52.5494ZM481.323 93.4656H522.377V134.519H481.323V93.4656ZM768.7 93.5272H809.753V134.581H768.7V93.5272ZM481.323 134.976H522.377V176.029H481.323V134.976ZM768.7 135.037H809.753V176.091H768.7V135.037ZM481.323 175.953H522.377V217.007H481.323V175.953ZM768.7 176.015H809.753V217.069H768.7V176.015ZM481.323 216.931H522.377V257.985H481.323V216.931ZM768.7 216.993H809.753V258.047H768.7V216.993ZM481.323 257.909H522.377V298.963H481.323V257.909ZM768.7 257.971H809.753V299.025H768.7V257.971ZM481.323 299.419H522.377V340.473H481.323V299.419ZM768.7 299.481H809.753V340.535H768.7V299.481ZM481.323 340.397H522.377V381.451H481.323V340.397ZM768.7 340.458H809.753V381.512H768.7V340.458ZM481.323 381.907H522.377V422.961H481.323V381.907ZM768.7 381.968H809.753V423.022H768.7V381.968ZM481.323 422.885H522.377V463.939H481.323V422.885ZM768.7 422.946H809.753V464H768.7V422.946Z" stroke="url(#paint0_radial_1462_9726)" stroke-opacity="0.15" stroke-width="0.27255"/>
</g>
<defs>
<radialGradient id="paint0_radial_1462_9726" cx="0" cy="0" r="1" gradientUnits="userSpaceOnUse" gradientTransform="translate(542.972 164.698) rotate(-112.028) scale(180.062 274.645)">
<stop stop-color="white"/>
<stop offset="1" stop-color="white" stop-opacity="0"/>
</radialGradient>
</defs>
</svg>
