<svg width="375" height="298" viewBox="0 0 375 298" fill="none" xmlns="http://www.w3.org/2000/svg">
<mask id="mask0_1462_9686" style="mask-type:alpha" maskUnits="userSpaceOnUse" x="0" y="0" width="375" height="298">
<rect width="375" height="298" fill="#D9D9D9"/>
</mask>
<g mask="url(#mask0_1462_9686)">
<path d="M4.72971 -20H-26V10.7297H4.72971M4.72971 -20V10.7297M4.72971 -20H35.4597V10.7297H4.72971M66.189 -20H35.4593V10.7297H66.189M66.189 -20V10.7297M66.189 -20H96.919V10.7297H66.189M127.648 -20H96.9186V10.7297H127.648M127.648 -20V10.7297M127.648 -20H158.378V10.7297H127.648M219.838 -19.9539H189.108V10.7758H219.838M219.838 -19.9539V10.7758M219.838 -19.9539L250.568 -19.9539V10.7758L219.838 10.7758M281.297 -19.9539H250.567V10.7758H281.297M281.297 -19.9539V10.7758M281.297 -19.9539H312.027V10.7758H281.297M342.756 -19.9539H312.026V10.7758H342.756M342.756 -19.9539V10.7758M342.756 -19.9539H373.486V10.7758H342.756M4.72971 10.6728H-26V41.4025H4.72971M4.72971 10.6728V41.4025M4.72971 10.6728L35.4597 10.6728V41.4025L4.72971 41.4025M66.189 10.6728H35.4593V41.4025H66.189M66.189 10.6728V41.4025M66.189 10.6728H96.919V41.4025H66.189M127.648 10.6728H96.9186V41.4025H127.648M127.648 10.6728V41.4025M127.648 10.6728H158.378V41.4025H127.648M219.838 10.7189H189.108V41.4486H219.838M219.838 10.7189V41.4486M219.838 10.7189H250.568V41.4486H219.838M281.297 10.7189H250.567V41.4486H281.297M281.297 10.7189V41.4486M281.297 10.7189H312.027V41.4486H281.297M342.756 10.7189H312.026V41.4486H342.756M342.756 10.7189V41.4486M342.756 10.7189H373.486V41.4486H342.756M4.72971 41.7439H-26V72.4736H4.72971M4.72971 41.7439V72.4736M4.72971 41.7439H35.4597V72.4736H4.72971M66.189 41.7439H35.4593V72.4736H66.189M66.189 41.7439V72.4736M66.189 41.7439H96.919V72.4736H66.189M127.648 41.7439H96.9186V72.4736H127.648M127.648 41.7439V72.4736M127.648 41.7439H158.378V72.4736H127.648M219.838 41.79H189.108V72.5197H219.838M219.838 41.79V72.5197M219.838 41.79H250.568V72.5197H219.838M281.297 41.79H250.567V72.5197H281.297M281.297 41.79V72.5197M281.297 41.79H312.027V72.5197H281.297M342.756 41.79H312.026V72.5197H342.756M342.756 41.79V72.5197M342.756 41.79H373.486V72.5197H342.756M4.72971 72.4167H-26V103.146H4.72971M4.72971 72.4167V103.146M4.72971 72.4167H35.4597V103.146H4.72971M66.189 72.4167H35.4593V103.146H66.189M66.189 72.4167V103.146M66.189 72.4167H96.919V103.146H66.189M127.648 72.4167H96.9186V103.146H127.648M127.648 72.4167V103.146M127.648 72.4167H158.378V103.146H127.648M219.838 72.4628H189.108V103.192H219.838M219.838 72.4628V103.192M219.838 72.4628H250.568V103.192H219.838M281.297 72.4628H250.567V103.192H281.297M281.297 72.4628V103.192M281.297 72.4628H312.027V103.192H281.297M342.756 72.4628H312.026V103.192H342.756M342.756 72.4628V103.192M342.756 72.4628H373.486V103.192H342.756M4.72971 103.488H-26V134.218H4.72971M4.72971 103.488V134.218M4.72971 103.488L35.4597 103.488V134.218L4.72971 134.218M66.189 103.488H35.4593V134.218H66.189M66.189 103.488V134.218M66.189 103.488H96.919V134.218H66.189M127.648 103.488H96.9186V134.218H127.648M127.648 103.488V134.218M127.648 103.488H158.378V134.218H127.648M219.838 103.534H189.108V134.264H219.838M219.838 103.534V134.264M219.838 103.534H250.568V134.264H219.838M281.297 103.534H250.567V134.264H281.297M281.297 103.534V134.264M281.297 103.534H312.027V134.264H281.297M342.756 103.534H312.026V134.264H342.756M342.756 103.534V134.264M342.756 103.534H373.486V134.264H342.756M4.72971 134.161H-26V164.89H4.72971M4.72971 134.161V164.89M4.72971 134.161H35.4597V164.89H4.72971M66.189 134.161H35.4593V164.89H66.189M66.189 134.161V164.89M66.189 134.161H96.919V164.89H66.189M127.648 134.161H96.9186V164.89H127.648M127.648 134.161V164.89M127.648 134.161H158.378V164.89H127.648M219.838 134.207H189.108V164.936H219.838M219.838 134.207V164.936M219.838 134.207L250.568 134.207V164.936H219.838M281.297 134.207H250.567V164.936H281.297M281.297 134.207V164.936M281.297 134.207H312.027V164.936H281.297M342.756 134.207H312.026V164.936H342.756M342.756 134.207V164.936M342.756 134.207H373.486V164.936H342.756M4.72971 164.833H-26V195.563H4.72971M4.72971 164.833V195.563M4.72971 164.833H35.4597V195.563H4.72971M66.189 164.833H35.4593V195.563H66.189M66.189 164.833V195.563M66.189 164.833H96.919V195.563H66.189M127.648 164.833H96.9186V195.563H127.648M127.648 164.833V195.563M127.648 164.833H158.378V195.563H127.648M219.838 164.879H189.108V195.609H219.838M219.838 164.879V195.609M219.838 164.879H250.568V195.609H219.838M281.297 164.879H250.567V195.609H281.297M281.297 164.879V195.609M281.297 164.879H312.027V195.609H281.297M342.756 164.879H312.026V195.609H342.756M342.756 164.879V195.609M342.756 164.879H373.486V195.609H342.756M4.72971 195.506H-26V226.236H4.72971M4.72971 195.506V226.236M4.72971 195.506H35.4597V226.236H4.72971M66.189 195.506H35.4593V226.236H66.189M66.189 195.506V226.236M66.189 195.506H96.919V226.236H66.189M127.648 195.506H96.9186V226.236H127.648M127.648 195.506V226.236M127.648 195.506H158.378V226.236H127.648M219.838 195.552H189.108V226.282H219.838M219.838 195.552V226.282M219.838 195.552H250.568V226.282L219.838 226.282M281.297 195.552H250.567V226.282H281.297M281.297 195.552V226.282M281.297 195.552H312.027V226.282H281.297M342.756 195.552H312.026V226.282H342.756M342.756 195.552V226.282M342.756 195.552H373.486V226.282H342.756M4.72971 226.577H-26V257.307H4.72971M4.72971 226.577V257.307M4.72971 226.577H35.4597V257.307H4.72971M66.189 226.577H35.4593V257.307H66.189M66.189 226.577V257.307M66.189 226.577H96.919V257.307H66.189M127.648 226.577H96.9186V257.307H127.648M127.648 226.577V257.307M127.648 226.577H158.378V257.307H127.648M219.838 226.623H189.108V257.353H219.838M219.838 226.623V257.353M219.838 226.623L250.568 226.623V257.353H219.838M281.297 226.623H250.567V257.353H281.297M281.297 226.623V257.353M281.297 226.623H312.027V257.353H281.297M342.756 226.623H312.026V257.353H342.756M342.756 226.623V257.353M342.756 226.623H373.486V257.353H342.756M4.72971 257.25H-26V287.98H4.72971M4.72971 257.25V287.98M4.72971 257.25L35.4597 257.25V287.98L4.72971 287.98M66.189 257.25H35.4593V287.98H66.189M66.189 257.25V287.98M66.189 257.25H96.919V287.98H66.189M127.648 257.25H96.9186V287.98H127.648M127.648 257.25V287.98M127.648 257.25H158.378V287.98H127.648M219.838 257.296H189.108V288.026H219.838M219.838 257.296V288.026M219.838 257.296H250.568V288.026H219.838M281.297 257.296H250.567V288.026H281.297M281.297 257.296V288.026M281.297 257.296H312.027V288.026H281.297M342.756 257.296H312.026V288.026H342.756M342.756 257.296V288.026M342.756 257.296H373.486V288.026H342.756M4.72971 288.321H-26V319.051H4.72971M4.72971 288.321V319.051M4.72971 288.321H35.4597V319.051H4.72971M66.189 288.321H35.4593V319.051H66.189M66.189 288.321V319.051M66.189 288.321H96.919V319.051H66.189M127.648 288.321H96.9186V319.051H127.648M127.648 288.321V319.051M127.648 288.321H158.378V319.051H127.648M219.838 288.367H189.108V319.097H219.838M219.838 288.367V319.097M219.838 288.367L250.568 288.367V319.097H219.838M281.297 288.367H250.567V319.097H281.297M281.297 288.367V319.097M281.297 288.367H312.027V319.097H281.297M342.756 288.367H312.026V319.097H342.756M342.756 288.367V319.097M342.756 288.367H373.486V319.097H342.756M4.72971 318.994H-26V349.724H4.72971M4.72971 318.994V349.724M4.72971 318.994H35.4597V349.724L4.72971 349.724M66.189 318.994H35.4593V349.724H66.189M66.189 318.994V349.724M66.189 318.994H96.919V349.724H66.189M127.648 318.994H96.9186V349.724H127.648M127.648 318.994V349.724M127.648 318.994H158.378V349.724H127.648M219.838 319.04H189.108V349.77H219.838M219.838 319.04V349.77M219.838 319.04H250.568V349.77H219.838M281.297 319.04H250.567V349.77H281.297M281.297 319.04V349.77M281.297 319.04H312.027V349.77H281.297M342.756 319.04H312.026V349.77H342.756M342.756 319.04V349.77M342.756 319.04H373.486V349.77H342.756M158.378 -20H189.108V10.7297H158.378V-20ZM373.486 -19.9539H404.215V10.7758H373.486V-19.9539ZM158.378 10.6728H189.108V41.4025H158.378V10.6728ZM373.486 10.7189H404.215V41.4486H373.486V10.7189ZM158.378 41.7439H189.108V72.4736H158.378V41.7439ZM373.486 41.79H404.215V72.5197H373.486V41.79ZM158.378 72.4167H189.108V103.146H158.378V72.4167ZM373.486 72.4628H404.215V103.192H373.486V72.4628ZM158.378 103.488H189.108V134.218H158.378V103.488ZM373.486 103.534H404.215V134.264H373.486V103.534ZM158.378 134.161H189.108V164.89H158.378V134.161ZM373.486 134.207H404.215V164.936H373.486V134.207ZM158.378 164.833H189.108V195.563H158.378V164.833ZM373.486 164.879H404.215V195.609H373.486V164.879ZM158.378 195.506H189.108V226.236H158.378V195.506ZM373.486 195.552H404.215V226.282H373.486V195.552ZM158.378 226.577H189.108V257.307H158.378V226.577ZM373.486 226.623H404.215V257.353H373.486V226.623ZM158.378 257.25H189.108V287.98H158.378V257.25ZM373.486 257.296H404.215V288.026H373.486V257.296ZM158.378 288.321H189.108V319.051H158.378V288.321ZM373.486 288.367H404.215V319.097H373.486V288.367ZM158.378 318.994H189.108V349.724H158.378V318.994ZM373.486 319.04H404.215V349.77H373.486V319.04Z" stroke="url(#paint0_radial_1462_9686)" stroke-opacity="0.15" stroke-width="0.358513"/>
</g>
<defs>
<radialGradient id="paint0_radial_1462_9686" cx="0" cy="0" r="1" gradientUnits="userSpaceOnUse" gradientTransform="translate(204.524 125.736) rotate(-112.028) scale(134.781 205.578)">
<stop stop-color="white"/>
<stop offset="1" stop-color="white" stop-opacity="0"/>
</radialGradient>
</defs>
</svg>
