<svg width="120" height="101" viewBox="0 0 120 101" fill="none" xmlns="http://www.w3.org/2000/svg">
<g id="Group 1430104790">
<g id="Group">
<path id="Vector" d="M87.7184 11.4697C97.3401 11.8441 104.513 17.2142 107.321 19.914C118.328 30.5111 119.884 49.4934 108.085 69.6039C96.2907 89.7143 78.4909 99.3952 63.9918 94.5868C59.2672 93.0201 47.1033 85.4085 44.4134 75.1217" fill="white"/>
<path id="Vector_2" d="M53.4146 86.8228C40.2373 79.0917 39.1194 56.5222 50.9177 36.4123C62.7161 16.3025 82.9629 6.26756 96.1403 13.9987C109.318 21.7298 110.436 44.2993 98.6372 64.4092C86.8388 84.519 66.592 94.5539 53.4146 86.8228Z" fill="#FFF478" stroke="black" stroke-width="0.733108" stroke-linecap="round" stroke-linejoin="round"/>
<path id="Vector_3" fill-rule="evenodd" clip-rule="evenodd" d="M91.0049 20.6926C83.4622 19.3624 71.3329 27.8805 62.1841 41.4829C52.5575 55.7948 50.2666 73.8951 55.681 79.3637C49.2173 79.4376 42.6254 56.4303 56.7796 37.5515C67.0812 22.2346 82.6789 15.3028 89.7387 19.6826C90.2018 19.9684 90.6255 20.3083 91.0049 20.6926Z" fill="black"/>
<path id="Vector_4" fill-rule="evenodd" clip-rule="evenodd" d="M81.2715 65.3406C85.8699 58.0178 83.3452 53.257 81.0649 49.2892L85.9464 41.5439C87.0237 43.3967 86.7335 45.7303 85.4587 47.8434L89.2123 51.5257C92.857 45.4207 92.2928 39.7229 89.4652 35.9682L91.0212 33.4281L88.8167 31.2684L87.2415 33.7902C83.1569 30.7691 78.6356 32.5987 75.7163 37.2599C71.3183 44.2631 73.3332 48.7158 75.4555 52.5283L70.0955 61.0621C68.7468 58.7593 68.9733 55.8967 70.4343 53.4923L66.7874 49.9127C63.1348 55.7286 63.07 62.3003 66.5131 66.7591L64.3908 70.1443L66.5953 72.304L68.7176 68.9188C73.152 72.289 78.0055 70.5456 81.274 65.334L81.2715 65.3406ZM79.5038 40.7912C80.5318 39.1328 82.1175 38.3948 83.7913 39.2911L79.4241 46.2314C78.6062 44.4006 78.3248 42.676 79.5038 40.7912ZM72.2168 63.3359L77.1312 55.5321C78.1274 57.6335 78.5921 59.6751 77.1113 62.0127C75.8495 64.0005 74.0344 64.4156 72.2168 63.3359Z" fill="black"/>
</g>
<path id="Vector_5" d="M5.39335 46.8637C2.96674 46.8637 0.999585 44.8965 0.999585 42.4699C0.999585 40.0433 2.96674 38.0762 5.39335 38.0762C7.81996 38.0762 9.78711 40.0433 9.78711 42.4699C9.78711 44.8965 7.81996 46.8637 5.39335 46.8637Z" fill="#F1FC6D" stroke="white" stroke-width="0.416707" stroke-linecap="round" stroke-linejoin="round"/>
</g>
</svg>
