<svg width="768" height="464" viewBox="0 0 768 464" fill="none" xmlns="http://www.w3.org/2000/svg">
<mask id="mask0_1462_9755" style="mask-type:alpha" maskUnits="userSpaceOnUse" x="0" y="0" width="768" height="464">
<path d="M768 0H0V464H768V0Z" fill="white"/>
</mask>
<g mask="url(#mask0_1462_9755)">
<path d="M138.054 16H97V57.0539H138.054M138.054 16V57.0539M138.054 16H179.108V57.0539H138.054M220.161 16H179.108V57.0539H220.161M220.161 16V57.0539M220.161 16H261.216V57.0539H220.161M302.269 16H261.215V57.0539H302.269M302.269 16V57.0539M302.269 16H343.323V57.0539H302.269M425.431 16.0616H384.377V57.1154H425.431M425.431 16.0616V57.1154M425.431 16.0616L466.485 16.0616V57.1154L425.431 57.1154M507.538 16.0616H466.485V57.1154H507.538M507.538 16.0616V57.1154M507.538 16.0616H548.593V57.1154H507.538M589.646 16.0616H548.592V57.1154H589.646M589.646 16.0616V57.1154M589.646 16.0616H630.7V57.1154H589.646M138.054 56.9778H97V98.0317H138.054M138.054 56.9778V98.0317M138.054 56.9778L179.108 56.9778V98.0317L138.054 98.0317M220.161 56.9778H179.108V98.0317H220.161M220.161 56.9778V98.0317M220.161 56.9778H261.216V98.0317H220.161M302.269 56.9778H261.215V98.0317H302.269M302.269 56.9778V98.0317M302.269 56.9778H343.323V98.0317H302.269M425.431 57.0394H384.377V98.0932H425.431M425.431 57.0394V98.0932M425.431 57.0394H466.485V98.0932H425.431M507.538 57.0394H466.485V98.0932H507.538M507.538 57.0394V98.0932M507.538 57.0394H548.593V98.0932H507.538M589.646 57.0394H548.592V98.0932H589.646M589.646 57.0394V98.0932M589.646 57.0394H630.7V98.0932H589.646M138.054 98.4878H97V139.542H138.054M138.054 98.4878V139.542M138.054 98.4878H179.108V139.542H138.054M220.161 98.4878H179.108V139.542H220.161M220.161 98.4878V139.542M220.161 98.4878H261.216V139.542H220.161M302.269 98.4878H261.215V139.542H302.269M302.269 98.4878V139.542M302.269 98.4878H343.323V139.542H302.269M425.431 98.5494H384.377V139.603H425.431M425.431 98.5494V139.603M425.431 98.5494H466.485V139.603H425.431M507.538 98.5494H466.485V139.603H507.538M507.538 98.5494V139.603M507.538 98.5494H548.593V139.603H507.538M589.646 98.5494H548.592V139.603H589.646M589.646 98.5494V139.603M589.646 98.5494H630.7V139.603H589.646M138.054 139.466H97V180.519H138.054M138.054 139.466V180.519M138.054 139.466H179.108V180.519H138.054M220.161 139.466H179.108V180.519H220.161M220.161 139.466V180.519M220.161 139.466H261.216V180.519H220.161M302.269 139.466H261.215V180.519H302.269M302.269 139.466V180.519M302.269 139.466H343.323V180.519H302.269M425.431 139.527H384.377V180.581H425.431M425.431 139.527V180.581M425.431 139.527H466.485V180.581H425.431M507.538 139.527H466.485V180.581H507.538M507.538 139.527V180.581M507.538 139.527H548.593V180.581H507.538M589.646 139.527H548.592V180.581H589.646M589.646 139.527V180.581M589.646 139.527H630.7V180.581H589.646M138.054 180.976H97V222.03H138.054M138.054 180.976V222.03M138.054 180.976L179.108 180.976V222.029L138.054 222.03M220.161 180.976H179.108V222.029H220.161M220.161 180.976V222.029M220.161 180.976H261.216V222.029H220.161M302.269 180.976H261.215V222.029H302.269M302.269 180.976V222.029M302.269 180.976H343.323V222.029H302.269M425.431 181.037H384.377V222.091H425.431M425.431 181.037V222.091M425.431 181.037H466.485V222.091H425.431M507.538 181.037H466.485V222.091H507.538M507.538 181.037V222.091M507.538 181.037H548.593V222.091H507.538M589.646 181.037H548.592V222.091H589.646M589.646 181.037V222.091M589.646 181.037H630.7V222.091H589.646M138.054 221.953H97V263.007H138.054M138.054 221.953V263.007M138.054 221.953H179.108V263.007H138.054M220.161 221.953H179.108V263.007H220.161M220.161 221.953V263.007M220.161 221.953H261.216V263.007H220.161M302.269 221.953H261.215V263.007H302.269M302.269 221.953V263.007M302.269 221.953H343.323V263.007H302.269M425.431 222.015H384.377V263.069H425.431M425.431 222.015V263.069M425.431 222.015L466.485 222.015V263.069H425.431M507.538 222.015H466.485V263.069H507.538M507.538 222.015V263.069M507.538 222.015H548.593V263.069H507.538M589.646 222.015H548.592V263.069H589.646M589.646 222.015V263.069M589.646 222.015H630.7V263.069H589.646M138.054 262.931H97V303.985H138.054M138.054 262.931V303.985M138.054 262.931H179.108V303.985H138.054M220.161 262.931H179.108V303.985H220.161M220.161 262.931V303.985M220.161 262.931H261.216V303.985H220.161M302.269 262.931H261.215V303.985H302.269M302.269 262.931V303.985M302.269 262.931H343.323V303.985H302.269M425.431 262.993H384.377V304.047H425.431M425.431 262.993V304.047M425.431 262.993H466.485V304.047H425.431M507.538 262.993H466.485V304.047H507.538M507.538 262.993V304.047M507.538 262.993H548.593V304.047H507.538M589.646 262.993H548.592V304.047H589.646M589.646 262.993V304.047M589.646 262.993H630.7V304.047H589.646M138.054 303.909H97V344.963H138.054M138.054 303.909V344.963M138.054 303.909H179.108V344.963H138.054M220.161 303.909H179.108V344.963H220.161M220.161 303.909V344.963M220.161 303.909H261.216V344.963H220.161M302.269 303.909H261.215V344.963H302.269M302.269 303.909V344.963M302.269 303.909H343.323V344.963H302.269M425.431 303.971H384.377V345.024H425.431M425.431 303.971V345.024M425.431 303.971H466.485V345.025L425.431 345.024M507.538 303.971H466.485V345.025H507.538M507.538 303.971V345.025M507.538 303.971H548.593V345.025H507.538M589.646 303.971H548.592V345.025H589.646M589.646 303.971V345.025M589.646 303.971H630.7V345.025H589.646M138.054 345.419H97V386.473H138.054M138.054 345.419V386.473M138.054 345.419H179.108V386.473H138.054M220.161 345.419H179.108V386.473H220.161M220.161 345.419V386.473M220.161 345.419H261.216V386.473H220.161M302.269 345.419H261.215V386.473H302.269M302.269 345.419V386.473M302.269 345.419H343.323V386.473H302.269M425.431 345.481H384.377V386.535H425.431M425.431 345.481V386.535M425.431 345.481L466.485 345.481V386.535H425.431M507.538 345.481H466.485V386.535H507.538M507.538 345.481V386.535M507.538 345.481H548.593V386.535H507.538M589.646 345.481H548.592V386.535H589.646M589.646 345.481V386.535M589.646 345.481H630.7V386.535H589.646M138.054 386.397H97V427.451H138.054M138.054 386.397V427.451M138.054 386.397L179.108 386.397V427.451L138.054 427.451M220.161 386.397H179.108V427.451H220.161M220.161 386.397V427.451M220.161 386.397H261.216V427.451H220.161M302.269 386.397H261.215V427.451H302.269M302.269 386.397V427.451M302.269 386.397H343.323V427.451H302.269M425.431 386.458H384.377V427.512H425.431M425.431 386.458V427.512M425.431 386.458H466.485V427.512H425.431M507.538 386.458H466.485V427.512H507.538M507.538 386.458V427.512M507.538 386.458H548.593V427.512H507.538M589.646 386.458H548.592V427.512H589.646M589.646 386.458V427.512M589.646 386.458H630.7V427.512H589.646M138.054 427.907H97V468.961H138.054M138.054 427.907V468.961M138.054 427.907H179.108V468.961H138.054M220.161 427.907H179.108V468.961H220.161M220.161 427.907V468.961M220.161 427.907H261.216V468.961H220.161M302.269 427.907H261.215V468.961H302.269M302.269 427.907V468.961M302.269 427.907H343.323V468.961H302.269M425.431 427.968H384.377V469.022H425.431M425.431 427.968V469.022M425.431 427.968L466.485 427.968V469.022H425.431M507.538 427.968H466.485V469.022H507.538M507.538 427.968V469.022M507.538 427.968H548.593V469.022H507.538M589.646 427.968H548.592V469.022H589.646M589.646 427.968V469.022M589.646 427.968H630.7V469.022H589.646M138.054 468.885H97V509.939H138.054M138.054 468.885V509.939M138.054 468.885H179.108V509.939L138.054 509.939M220.161 468.885H179.108V509.939H220.161M220.161 468.885V509.939M220.161 468.885H261.216V509.939H220.161M302.269 468.885H261.215V509.939H302.269M302.269 468.885V509.939M302.269 468.885H343.323V509.939H302.269M425.431 468.946H384.377V510H425.431M425.431 468.946V510M425.431 468.946H466.485V510H425.431M507.538 468.946H466.485V510H507.538M507.538 468.946V510M507.538 468.946H548.593V510H507.538M589.646 468.946H548.592V510H589.646M589.646 468.946V510M589.646 468.946H630.7V510H589.646M343.323 16H384.377V57.0539H343.323V16ZM630.7 16.0616H671.753V57.1154H630.7V16.0616ZM343.323 56.9778H384.377V98.0317H343.323V56.9778ZM630.7 57.0394H671.753V98.0932H630.7V57.0394ZM343.323 98.4878H384.377V139.542H343.323V98.4878ZM630.7 98.5494H671.753V139.603H630.7V98.5494ZM343.323 139.466H384.377V180.519H343.323V139.466ZM630.7 139.527H671.753V180.581H630.7V139.527ZM343.323 180.976H384.377V222.029H343.323V180.976ZM630.7 181.037H671.753V222.091H630.7V181.037ZM343.323 221.953H384.377V263.007H343.323V221.953ZM630.7 222.015H671.753V263.069H630.7V222.015ZM343.323 262.931H384.377V303.985H343.323V262.931ZM630.7 262.993H671.753V304.047H630.7V262.993ZM343.323 303.909H384.377V344.963H343.323V303.909ZM630.7 303.971H671.753V345.025H630.7V303.971ZM343.323 345.419H384.377V386.473H343.323V345.419ZM630.7 345.481H671.753V386.535H630.7V345.481ZM343.323 386.397H384.377V427.451H343.323V386.397ZM630.7 386.458H671.753V427.512H630.7V386.458ZM343.323 427.907H384.377V468.961H343.323V427.907ZM630.7 427.968H671.753V469.022H630.7V427.968ZM343.323 468.885H384.377V509.939H343.323V468.885ZM630.7 468.946H671.753V510H630.7V468.946Z" stroke="url(#paint0_radial_1462_9755)" stroke-opacity="0.15" stroke-width="0.27255"/>
</g>
<defs>
<radialGradient id="paint0_radial_1462_9755" cx="0" cy="0" r="1" gradientUnits="userSpaceOnUse" gradientTransform="translate(404.972 210.698) rotate(-112.028) scale(180.062 274.645)">
<stop stop-color="white"/>
<stop offset="1" stop-color="white" stop-opacity="0"/>
</radialGradient>
</defs>
</svg>
