<svg width="34" height="40" viewBox="0 0 34 40" fill="none" xmlns="http://www.w3.org/2000/svg">
<path d="M13.7576 38.2398L1.78929 31.5186C1.26514 31.2247 1.00391 30.699 1.00391 30.1733C1.00391 29.4343 1.00391 27.3904 1.00391 27.3904L13.7592 22.1068C15.5628 21.0941 17.7632 21.0941 19.5667 22.1068L32.322 27.5298C32.322 27.5298 32.2735 29.1707 32.2735 29.7837C32.2735 30.4437 32.1914 31.1508 31.5367 31.5186L19.5684 38.2398C17.7598 39.2525 15.5611 39.2525 13.7576 38.2398Z" fill="url(#paint0_linear_44_2712)" stroke="black" stroke-width="0.0999982" stroke-miterlimit="10"/>
<path d="M1 27.3893C1 27.3893 1 29.4333 1 30.1722C1 30.6979 1.26124 31.2219 1.78538 31.5175L13.7537 38.2387C14.6295 38.7308 15.5974 38.9827 16.5686 38.9978V30.7113L4.63051 25.8862L1 27.3893Z" fill="white" stroke="black" stroke-width="0.0999982" stroke-miterlimit="10"/>
<path d="M13.7545 35.5961L1.78622 28.8749C0.737927 28.2871 0.737927 26.7739 1.78622 26.1861L13.7562 19.4649C15.5597 18.4521 17.7601 18.4521 19.5636 19.4649L31.5319 26.1861C32.5802 26.7739 32.5802 28.2871 31.5319 28.8749L19.5636 35.5961C17.7568 36.6089 15.558 36.6089 13.7545 35.5961Z" fill="#1DA2B4" stroke="black" stroke-width="0.0999982" stroke-miterlimit="10"/>
<path d="M19.6878 17.0452C19.6878 17.0452 19.3026 19.4116 19.8804 20.1355L18.7735 21.6806L13.6693 21.4874L11.3584 20.473C11.3584 20.473 12.8505 17.9622 12.9476 16.5129C13.0447 15.0635 12.9961 14.2909 12.9961 14.2909L14.5853 13.4697L18.3414 14.6957L19.6878 17.0452Z" fill="#FCFFFB" stroke="#231816" stroke-width="0.0999982" stroke-miterlimit="10"/>
<path d="M19.496 17.9626C20.844 18.0281 21.7047 17.5763 22.1418 15.4031C22.5789 13.2298 22.6743 11.636 22.3863 10.9592C22.0983 10.2824 21.6579 9.99351 22.1418 9.07652C22.6258 8.15953 22.1988 6.72023 21.7148 6.06355C21.2308 5.40688 15.986 5.16504 15.986 5.16504H13.717L10.6826 8.83467L11.8866 11.8292L13.861 14.6792C13.861 14.6792 14.1976 15.6449 14.7284 16.0312C15.2593 16.4175 17.5233 17.8668 19.496 17.9626Z" fill="#FCFFFB" stroke="#231816" stroke-width="0.0999982" stroke-miterlimit="10"/>
<path d="M15.2548 5.64477C15.2548 5.64477 14.4359 6.41732 14.5799 7.38302C14.7239 8.34871 15.0136 9.94252 14.2433 10.5706C14.2433 10.5706 13.7141 9.36311 12.8467 9.79809C11.9793 10.2331 12.0278 10.9468 12.413 11.6287C12.7981 12.3106 13.8833 13.0781 13.9536 13.5651C14.0859 14.4687 13.8565 14.6753 13.8565 14.6753C13.8565 14.6753 13.478 15.0901 12.989 14.289C12.6608 13.7515 12.3142 12.6465 11.3044 11.8252C10.2929 11.0039 9.59799 9.4857 9.82406 6.16372C9.82406 6.16372 12.0747 3.22802 13.133 3.56727C14.1947 3.90652 15.2548 5.64477 15.2548 5.64477Z" fill="#12947C" stroke="#221715" stroke-width="0.0999982" stroke-miterlimit="10"/>
<path d="M25.3683 26.8929C25.3683 26.8929 27.2941 25.8785 26.4752 23.2233C25.6564 20.568 24.8375 19.1674 23.4409 18.7324C22.0443 18.2974 21.5185 17.8423 19.5726 18.1429C19.5726 18.1429 19.5642 19.2043 19.6212 19.4579C19.6781 19.7115 19.8171 20.1817 18.9028 20.652C17.9884 21.1222 16.4947 21.3641 15.0512 20.5546C13.606 19.7451 12.469 18.2302 12.469 18.2302C12.469 18.2302 10.6923 18.9255 8.92222 20.1566C7.15219 21.3876 6.10557 24.2125 5.96156 26.8929C5.81754 29.5733 6.03356 29.5011 6.17757 29.9361C6.32159 30.3711 7.04501 32.0724 9.97052 32.3629C12.896 32.6535 14.3764 32.7609 17.8076 31.1671C21.2388 29.5733 24.5511 27.6671 25.3683 26.8929Z" fill="url(#paint1_linear_44_2712)" stroke="black" stroke-width="0.0999982" stroke-miterlimit="10"/>
<path d="M11.6504 18.5931C11.6504 18.5931 14.2343 22.644 18.1344 21.6548C22.0345 20.6656 19.881 18.101 19.881 18.101" stroke="#231816" stroke-width="0.0999982" stroke-miterlimit="10" stroke-linejoin="round"/>
<path d="M12.0996 32.5315C12.0996 32.5315 12.7862 27.8743 13.5816 26.8246C13.0039 29.2145 12.679 32.5315 12.679 32.5315H12.0996Z" fill="#0F0F0F"/>
<path d="M22.2852 22.876C22.2852 22.876 24.1875 24.542 25.3664 26.8966L24.9729 27.2191C24.9729 27.2191 23.9463 24.4328 22.2852 22.876Z" fill="#0F0F0F"/>
<path d="M21.7143 2.71484C21.7143 2.71484 23.5916 6.71533 19.447 7.10664C15.3024 7.49796 13.1907 3.26402 9.82812 6.16614C9.82812 6.16614 10.22 2.55865 13.7383 1.30409C17.2566 0.0495245 19.1338 3.10783 21.7143 2.71484Z" fill="#12947C" stroke="#221715" stroke-width="0.0999982" stroke-miterlimit="10"/>
<path d="M25.5268 14.2065L20.8178 21.2081C20.6621 21.4382 20.6135 21.7254 20.6839 21.9958L22.3417 27.7967C22.4439 28.1527 22.6816 28.455 23.0032 28.6381L24.7565 29.6323L28.5159 14.6129L26.7107 13.8538C26.282 13.6707 25.7863 13.8202 25.5268 14.2065Z" fill="#1DA2B4" stroke="#221715" stroke-width="0.0999982" stroke-miterlimit="10"/>
<path d="M26.7129 13.852C26.2843 13.6723 25.7886 13.8201 25.529 14.2063L20.8201 21.208C20.738 21.3306 20.6861 21.47 20.666 21.6145L22.503 22.4945L27.0462 18.5209L27.7093 17.8508L28.5198 14.6128L26.7129 13.852Z" fill="#1ECBE2" stroke="black" stroke-width="0.0999982" stroke-miterlimit="10"/>
<path d="M32.2939 16.5257L28.8258 14.722C28.2297 14.413 27.4979 14.6044 27.1311 15.167L22.7019 21.9487C22.4992 22.2594 22.4373 22.6407 22.5311 22.9984L24.0365 28.7758C24.2475 29.5836 25.1468 29.9917 25.8903 29.6155L30.5506 27.2592C30.9073 27.0795 31.1619 26.7453 31.2422 26.354L32.9738 17.9533C33.091 17.3806 32.813 16.7961 32.2939 16.5257Z" fill="white" stroke="black" stroke-width="0.0999982" stroke-miterlimit="10"/>
<path d="M29.4015 17.6397L27.2179 22.8964C27.1258 23.1198 26.8428 23.1887 26.6586 23.0325L25.7258 21.9845C25.7258 21.9845 25.2218 21.8619 25.1397 21.8619C25.0041 21.8636 24.8718 21.9425 24.8132 22.0819L24.207 23.5413C24.1467 23.6875 24.1885 23.8554 24.3108 23.9562L26.4358 25.6995C26.5464 25.7918 26.6736 25.8506 26.8026 25.8792C27.1911 25.9631 27.4808 26.0202 27.4808 26.0202L28.2276 24.2887L30.6759 18.3971C30.7378 18.2493 30.6926 18.0764 30.567 17.9773L30.356 17.5423C30.356 17.5423 29.8235 17.423 29.7532 17.418C29.6075 17.413 29.4635 17.4936 29.4015 17.6397Z" fill="white" stroke="black" stroke-width="0.0999982" stroke-miterlimit="10"/>
<path d="M29.9838 17.7644L27.8002 23.0212C27.7081 23.2445 27.4251 23.3134 27.2409 23.1572L25.9565 22.0706C25.7723 21.9144 25.4893 21.9833 25.3972 22.2066L24.7909 23.6661C24.7307 23.8122 24.7725 23.9801 24.8948 24.0809L27.0198 25.8242C27.4653 26.1953 28.1401 26.0274 28.3628 25.4917L28.8116 24.4134L31.2599 18.5219C31.3218 18.3741 31.2766 18.2011 31.151 18.102L30.5381 17.62C30.3472 17.4739 30.0743 17.5461 29.9838 17.7644Z" fill="url(#paint2_linear_44_2712)" stroke="black" stroke-width="0.0999982" stroke-miterlimit="10"/>
<defs>
<linearGradient id="paint0_linear_44_2712" x1="21.3612" y1="23.0176" x2="19.5448" y2="41.5141" gradientUnits="userSpaceOnUse">
<stop stop-color="#41F8AD"/>
<stop offset="1" stop-color="#3DC9CC"/>
</linearGradient>
<linearGradient id="paint1_linear_44_2712" x1="10.6093" y1="19.7238" x2="21.3438" y2="29.0549" gradientUnits="userSpaceOnUse">
<stop offset="0.0374639" stop-color="#41F8AD"/>
<stop offset="1" stop-color="#3DC9CC"/>
</linearGradient>
<linearGradient id="paint2_linear_44_2712" x1="29.0042" y1="18.3461" x2="27.0717" y2="26.8796" gradientUnits="userSpaceOnUse">
<stop stop-color="#41F8AD"/>
<stop offset="1" stop-color="#3DC9CC"/>
</linearGradient>
</defs>
</svg>
