<svg width="34" height="41" viewBox="0 0 34 41" fill="none" xmlns="http://www.w3.org/2000/svg">
<path d="M13.9576 39.1699L1.41671 32.0504C0.867484 31.7391 0.59375 31.1823 0.59375 30.6255C0.59375 29.8427 0.59375 27.6777 0.59375 27.6777L13.9593 22.081C15.8491 21.0083 18.1548 21.0083 20.0446 22.081L33.4102 27.8253C33.4102 27.8253 33.3593 29.5634 33.3593 30.2127C33.3593 30.9119 33.2733 31.6608 32.5872 32.0504L20.0464 39.1699C18.1513 40.2426 15.8474 40.2426 13.9576 39.1699Z" fill="url(#paint0_linear_44_2614)" stroke="black" stroke-width="0.102564" stroke-miterlimit="10"/>
<path d="M0.589844 27.6761C0.589844 27.6761 0.589844 29.8411 0.589844 30.6239C0.589844 31.1807 0.863577 31.7357 1.4128 32.0488L13.9537 39.1683C14.8714 39.6895 15.8856 39.9564 16.9033 39.9724V31.1949L4.39404 26.0839L0.589844 27.6761Z" fill="white" stroke="black" stroke-width="0.102564" stroke-miterlimit="10"/>
<path d="M13.9545 36.3716L1.41368 29.2521C0.315233 28.6295 0.315233 27.0266 1.41368 26.404L13.9563 19.2845C15.8461 18.2118 18.1518 18.2118 20.0416 19.2845L32.5824 26.404C33.6809 27.0266 33.6809 28.6295 32.5824 29.2521L20.0416 36.3716C18.1483 37.4443 15.8443 37.4443 13.9545 36.3716Z" fill="#1DA2B4" stroke="black" stroke-width="0.102564" stroke-miterlimit="10"/>
<path d="M24.1144 10.8518C24.1144 10.8518 21.236 8.69562 18.8234 8.99741C16.4107 9.29919 11.3338 11.6167 10.0044 13.8468C8.67511 16.077 7.20309 19.1385 6.38447 23.6937C5.56585 28.249 5.7292 28.826 6.38447 29.5586C7.03975 30.2912 10.0683 31.6103 10.0683 31.6103L20.0795 16.5515L24.1144 10.8518Z" fill="url(#paint1_linear_44_2614)" stroke="black" stroke-width="0.102564" stroke-miterlimit="10"/>
<path d="M23.2912 2.8232C23.2912 2.8232 21.9882 0.947964 19.8778 1.00111C17.5065 1.05995 17.5947 3.81966 15.9819 3.81207C14.369 3.80447 12.713 2.47017 11.3255 4.29037C9.93797 6.11056 12.131 10.681 15.8936 11.2295L18.8433 8.57798L23.2912 2.8232Z" fill="url(#paint2_linear_44_2614)" stroke="black" stroke-width="0.102564" stroke-miterlimit="10"/>
<path d="M10.7022 31.7558C9.59257 31.7558 9.0293 31.0763 9.0293 29.7344C9.0293 27.0202 11.2505 18.9783 12.6868 16.4976C14.1964 13.8879 16.5903 12.6636 18.5073 11.8893L18.8171 11.764C20.3736 11.1338 21.716 10.5891 22.9139 10.5891C24.0611 10.5891 24.9304 11.094 25.6514 12.1796C27.1685 14.4611 28.3927 19.134 28.8527 20.8934C28.9128 21.1269 28.9616 21.3129 28.9973 21.4401C29.2075 22.1955 29.0893 23.6797 25.9443 25.1146C23.3627 26.2933 14.1964 30.5316 12.8933 31.1522C12.315 31.4274 11.4645 31.7558 10.7022 31.7558Z" fill="white" stroke="black" stroke-width="0.102564" stroke-miterlimit="10"/>
<path d="M22.9113 10.6262C23.9458 10.6262 24.8489 11.0437 25.615 12.1977C27.3236 14.7676 28.6454 20.325 28.9552 21.4467C29.2669 22.5685 28.4895 23.9028 25.9248 25.0738C23.36 26.2449 14.1937 30.4832 12.8719 31.1133C12.273 31.398 11.4356 31.7131 10.6977 31.7131C9.80773 31.7131 9.06421 31.2557 9.06421 29.7335C9.06421 26.9491 11.3173 18.9357 12.7161 16.5176C14.1149 14.0995 16.259 12.8392 18.5178 11.9263C20.1757 11.2544 21.642 10.6262 22.9113 10.6262ZM22.9113 10.5446C21.7059 10.5446 20.3597 11.0912 18.7994 11.7232L18.4896 11.8485C16.567 12.6267 14.1637 13.8547 12.6485 16.4739C11.2103 18.9584 8.98535 27.0117 8.98535 29.7316C8.98535 31.436 9.91663 31.7928 10.6996 31.7928C11.4694 31.7928 12.3255 31.4626 12.9076 31.1855C14.2275 30.5572 23.3919 26.3208 25.9586 25.1479C29.1298 23.6997 29.2462 22.1946 29.0322 21.4259C28.9965 21.2987 28.9477 21.1127 28.8876 20.8792C28.4276 19.1179 27.2015 14.4412 25.6807 12.1541C24.9522 11.0551 24.0716 10.5446 22.9113 10.5446Z" fill="black"/>
<path d="M16.4431 11.2782C15.7822 11.2782 15.1852 10.9176 14.62 10.1774C13.5367 8.76334 13.854 7.29048 14.0399 6.72298C14.2727 6.01122 14.6932 5.4589 15.0857 5.34692C15.3391 5.27479 15.6095 5.23873 15.8911 5.23873C16.5333 5.23873 17.1454 5.42664 17.6392 5.57658C17.994 5.68477 18.3019 5.77966 18.531 5.77966C18.608 5.77966 18.6699 5.77017 18.7244 5.74929C19.1863 5.57278 19.6144 5.04513 20.0687 4.48901C20.7709 3.62731 21.5652 2.65173 22.7236 2.65173C23.1386 2.65363 23.439 2.80357 23.6211 3.09966C24.2163 4.05816 23.4296 6.29972 22.9301 7.34932C22.2467 8.78801 20.6376 10.2761 19.1281 10.2761C19.0323 10.2761 18.9384 10.2704 18.8445 10.2571C18.6962 10.3425 18.5197 10.4469 18.3376 10.5551C17.765 10.8929 17.1209 11.2782 16.4431 11.2782Z" fill="white" stroke="black" stroke-width="0.102564" stroke-miterlimit="10"/>
<path d="M22.7186 2.68879C22.7204 2.68879 22.7223 2.68879 22.7261 2.68879C24.583 2.69448 23.5898 5.85278 22.8894 7.32754C22.2304 8.71499 20.6307 10.2296 19.123 10.2296C19.0292 10.2296 18.9371 10.2239 18.8451 10.2125C18.1317 10.5845 17.3187 11.2336 16.4419 11.2336C15.8692 11.2336 15.2684 10.9584 14.6507 10.1499C13.0998 8.1266 14.2564 5.62123 15.0956 5.38397C15.3641 5.30805 15.6289 5.27768 15.8898 5.27768C16.9826 5.27768 17.9664 5.81861 18.5297 5.81861C18.6067 5.81861 18.6762 5.80913 18.7381 5.78445C19.9229 5.32703 20.8335 2.68879 22.7186 2.68879ZM22.7186 2.60718C21.5432 2.60718 20.7415 3.59035 20.0336 4.45964C19.583 5.01196 19.1568 5.53391 18.7062 5.70853C18.6574 5.72751 18.5973 5.737 18.526 5.737C18.3025 5.737 17.9984 5.644 17.6454 5.53581C17.1497 5.38397 16.5339 5.19606 15.8861 5.19606C15.6026 5.19606 15.3266 5.23213 15.0712 5.30615C14.6657 5.42003 14.2357 5.98374 13.9973 6.70878C13.8095 7.28198 13.4903 8.77193 14.5849 10.2011C15.1595 10.9527 15.7678 11.3172 16.44 11.3172C17.129 11.3172 17.7787 10.93 18.3513 10.5902C18.5278 10.4858 18.6949 10.3852 18.8583 10.2998C18.9447 10.3093 19.0329 10.315 19.1211 10.315C20.6476 10.315 22.2717 8.81558 22.9608 7.3655C23.464 6.30831 24.2525 4.04966 23.6498 3.07598C23.4583 2.76661 23.1467 2.61098 22.7242 2.60908H22.7186V2.60718Z" fill="url(#paint3_linear_44_2614)" stroke="black" stroke-width="0.102564" stroke-miterlimit="10"/>
<path d="M18.1768 30.0904L19.7915 30.9255L20.6439 29.6975L21.1865 29.2458L22.0464 29.6975L22.3788 28.7143L22.2736 27.5945L20.3735 28.0063L18.1768 30.0904Z" fill="white" stroke="black" stroke-width="0.102564" stroke-miterlimit="10"/>
<path d="M21.955 15.1245L23.5716 15.9596C23.5716 15.9596 23.1661 16.5784 23.1661 18.4745C23.1661 20.3706 22.9483 20.8261 22.9483 20.8261C22.9483 20.8261 24.2081 20.8527 24.2081 22.6957C24.2081 24.5387 22.7605 25.9736 21.9569 26.3532V28.1145L20.4323 28.8661V27.194L19.5724 27.6552V29.3349L18.1773 30.0941L16.542 29.2002L17.0245 26.951L17.6948 26.6265L17.7267 22.0637L16.5439 21.4525V19.4482L18.1792 18.6358V17.0909L19.5743 16.3051L20.5637 16.8118V15.8704L21.955 15.1245Z" fill="white" stroke="black" stroke-width="0.102564" stroke-miterlimit="10"/>
<path d="M19.7538 29.3124L18.1016 30.1058L18.6047 27.7561L19.2694 27.4334V21.7033L18.1166 22.3543V20.2551L19.7519 19.4428V17.8997L21.2277 17.0684V18.7614L22.1365 18.2243V16.6793L23.6104 15.8954V17.5485C23.6986 17.5296 23.8939 17.4954 24.1323 17.4954C24.6787 17.4954 25.5931 17.689 25.5931 18.9816C25.5931 20.5835 24.8796 21.411 24.6543 21.6331C24.9509 21.6843 25.8616 21.9671 25.8616 23.533C25.8616 25.4728 24.3332 26.8621 23.6104 27.217V28.9784L22.005 29.7699V28.0996L21.2258 28.5172V30.1969L19.7501 30.9998V29.3124H19.7538Z" fill="url(#paint4_linear_44_2614)" stroke="black" stroke-width="0.102564" stroke-miterlimit="10"/>
<path d="M23.5715 15.9593V17.5954C23.5715 17.5954 23.8156 17.5327 24.1329 17.5327C24.7187 17.5327 25.5542 17.7491 25.5542 18.979C25.5542 20.8751 24.5629 21.6609 24.5629 21.6609C24.5629 21.6609 25.8227 21.6875 25.8227 23.5305C25.8227 25.3734 24.3751 26.8083 23.5715 27.1879V28.9493L22.0469 29.7009V28.0288L21.187 28.49V30.1697L19.792 30.9289V29.2492L18.1566 30.035L18.6391 27.7858L19.3094 27.4612V21.6362L18.1566 22.2873V20.283L19.792 19.4706V17.9256L21.187 17.1398V18.8348L22.1765 18.2502V16.7052L23.5715 15.9593ZM23.6522 15.8245L23.534 15.8872L22.1408 16.6293L22.0976 16.6521V16.7014V18.1989L21.2696 18.6867V17.1341V16.9956L21.1494 17.0639L19.7544 17.8497L19.7131 17.8725V17.9199V19.4137L18.1228 20.2032L18.0777 20.226V20.2773V22.2816V22.4201L18.1979 22.3518L19.2306 21.7691V27.4043L18.6053 27.708L18.5697 27.7251L18.5622 27.7649L18.0796 30.0141L18.0439 30.1754L18.1923 30.1033L19.7112 29.3725V30.9232V31.0599L19.8295 30.9953L21.2245 30.2361L21.2677 30.2134V30.164V28.5336L21.9662 28.1597V29.6971V29.8281L22.0826 29.7711L23.6072 29.0195L23.6522 28.9967V28.9455V27.2354C24.392 26.8596 25.9034 25.4664 25.9034 23.5267C25.9034 22.0481 25.1017 21.6894 24.7394 21.6021C25.0135 21.3155 25.6368 20.4993 25.6368 18.9752C25.6368 17.6466 24.6962 17.4473 24.1348 17.4473C23.9301 17.4473 23.7574 17.472 23.6541 17.491V15.9555V15.8245H23.6522Z" fill="black"/>
<path d="M21.1855 20.7114L22.5768 20.0073C22.5768 20.0073 23.5682 19.546 23.5682 20.3603C23.5682 21.1726 23.2734 21.4706 22.8716 21.742C22.4698 22.0135 21.1855 22.6094 21.1855 22.6094V20.7114Z" fill="#0F0F0F"/>
<path d="M21.1855 24.5082L22.9261 23.6503C22.9261 23.6503 23.9174 23.189 23.9174 24.0033C23.9174 24.8156 23.6226 25.1933 23.2208 25.4629C22.819 25.7324 21.1855 26.484 21.1855 26.484V24.5082Z" fill="#0F0F0F"/>
<path d="M22.1752 16.7027L20.5586 15.8676" stroke="black" stroke-width="0.102564" stroke-miterlimit="10"/>
<path d="M20.5586 16.8072L21.1838 17.1336" stroke="black" stroke-width="0.102564" stroke-miterlimit="10"/>
<path d="M18.1768 17.0867L19.7915 17.9218" stroke="black" stroke-width="0.102564" stroke-miterlimit="10"/>
<path d="M18.1768 18.6297L19.7915 19.4648" stroke="black" stroke-width="0.102564" stroke-miterlimit="10"/>
<path d="M16.542 19.4438L18.1567 20.2789" stroke="black" stroke-width="0.102564" stroke-miterlimit="10"/>
<path d="M17.7275 22.0621L18.1594 22.2861" stroke="black" stroke-width="0.102564" stroke-miterlimit="10"/>
<path d="M17.6934 26.6204L19.3081 27.4555" stroke="black" stroke-width="0.102564" stroke-miterlimit="10"/>
<path d="M18.6391 27.7856L17.0244 26.9505" stroke="black" stroke-width="0.102564" stroke-miterlimit="10"/>
<path d="M17.7275 23.0089L19.3122 24.402V21.6328L18.1594 22.2838L17.7275 22.0599V23.0089Z" fill="#0F0F0F"/>
<defs>
<linearGradient id="paint0_linear_44_2614" x1="21.925" y1="23.0458" x2="19.9804" y2="42.6342" gradientUnits="userSpaceOnUse">
<stop stop-color="#41F8AD"/>
<stop offset="1" stop-color="#3DC9CC"/>
</linearGradient>
<linearGradient id="paint1_linear_44_2614" x1="9.96463" y1="11.5903" x2="23.3479" y2="18.1464" gradientUnits="userSpaceOnUse">
<stop offset="0.0374639" stop-color="#41F8AD"/>
<stop offset="1" stop-color="#3DC9CC"/>
</linearGradient>
<linearGradient id="paint2_linear_44_2614" x1="13.7068" y1="2.18454" x2="21.0088" y2="7.54744" gradientUnits="userSpaceOnUse">
<stop offset="0.0374639" stop-color="#41F8AD"/>
<stop offset="1" stop-color="#3DC9CC"/>
</linearGradient>
<linearGradient id="paint3_linear_44_2614" x1="16.0801" y1="3.61576" x2="22.2048" y2="7.90814" gradientUnits="userSpaceOnUse">
<stop offset="0.0374639" stop-color="#41F8AD"/>
<stop offset="1" stop-color="#3DC9CC"/>
</linearGradient>
<linearGradient id="paint4_linear_44_2614" x1="19.8563" y1="17.6444" x2="26.2758" y2="19.6451" gradientUnits="userSpaceOnUse">
<stop offset="0.0374639" stop-color="#41F8AD"/>
<stop offset="1" stop-color="#3DC9CC"/>
</linearGradient>
</defs>
</svg>
