<svg width="34" height="38" viewBox="0 0 34 38" fill="none" xmlns="http://www.w3.org/2000/svg">
<path d="M14.0336 33.6726L1.80629 26.7311C1.2708 26.4276 1.00391 25.8847 1.00391 25.3418C1.00391 24.5786 1.00391 22.4677 1.00391 22.4677L14.0353 17.011C15.8779 15.9651 18.1259 15.9651 19.9685 17.011L32.9999 22.6117C32.9999 22.6117 32.9503 24.3063 32.9503 24.9394C32.9503 25.6211 32.8665 26.3513 32.1975 26.7311L19.9702 33.6726C18.1225 34.7185 15.8762 34.7185 14.0336 33.6726Z" fill="url(#paint0_linear_44_2736)" stroke="black" stroke-width="0.1" stroke-miterlimit="10"/>
<path d="M1 22.4664C1 22.4664 1 24.5773 1 25.3405C1 25.8834 1.26689 26.4246 1.80238 26.7298L14.0297 33.6713C14.9245 34.1795 15.9133 34.4397 16.9056 34.4553V25.8973L4.7091 20.9141L1 22.4664Z" fill="white" stroke="black" stroke-width="0.1" stroke-miterlimit="10"/>
<path d="M14.0306 30.9443L1.80324 24.0028C0.732255 23.3958 0.732255 21.833 1.80324 21.2259L14.0323 14.2844C15.8748 13.2385 18.1229 13.2385 19.9654 14.2844L32.1928 21.2259C33.2638 21.833 33.2638 23.3958 32.1928 24.0028L19.9654 30.9443C18.1195 31.9902 15.8731 31.9902 14.0306 30.9443Z" fill="#1DA2B4" stroke="black" stroke-width="0.1" stroke-miterlimit="10"/>
<path d="M25.6853 4.22682L17.0745 16.8995C16.7105 17.4383 15.8732 17.4993 15.4196 17.0201L13.2399 13.9293C13.2399 13.9293 11.8601 13.4049 11.6264 13.371C11.2393 13.3194 10.8266 13.4687 10.5963 13.8044L8.20579 17.3228C7.96762 17.6752 8.01044 18.1262 8.31276 18.4368L13.572 23.8146C13.8447 24.0987 14.1804 24.303 14.5347 24.4299C15.603 24.807 16.4021 25.0739 16.4021 25.0739L19.317 20.911L28.9702 6.70824C29.2139 6.35218 29.1638 5.88686 28.8512 5.5792L28.4481 4.36901C28.4481 4.36901 26.9857 3.84148 26.7877 3.79946C26.3751 3.72636 25.9283 3.8751 25.6853 4.22682Z" fill="white" stroke="black" stroke-width="0.1" stroke-miterlimit="10"/>
<path d="M27.2865 4.78559L18.6757 17.4583C18.3118 17.997 17.4744 18.0581 17.0209 17.5788L13.8571 14.2433C13.4036 13.764 12.5662 13.8251 12.2023 14.3639L9.81179 17.8823C9.57362 18.2347 9.61647 18.6856 9.91879 18.9962L15.178 24.3741C16.2778 25.5162 18.2762 25.3609 19.1543 24.0694L20.923 21.4704L30.5762 7.26769C30.8199 6.91163 30.7698 6.44632 30.4572 6.13866L28.9309 4.64128C28.4537 4.18526 27.6434 4.25914 27.2865 4.78559Z" fill="url(#paint1_linear_44_2736)" stroke="black" stroke-width="0.1" stroke-miterlimit="10"/>
<defs>
<linearGradient id="paint0_linear_44_2736" x1="21.8018" y1="17.9516" x2="19.9059" y2="37.0503" gradientUnits="userSpaceOnUse">
<stop stop-color="#41F8AD"/>
<stop offset="1" stop-color="#3DC9CC"/>
</linearGradient>
<linearGradient id="paint1_linear_44_2736" x1="24.2319" y1="5.88344" x2="16.322" y2="27.657" gradientUnits="userSpaceOnUse">
<stop stop-color="#41F8AD"/>
<stop offset="1" stop-color="#3DC9CC"/>
</linearGradient>
</defs>
</svg>
